<?xml version="1.0" ?><svg id="icon" style="enable-background:new 0 0 512 512;" version="1.1" viewBox="0 0 512 512" fill="#ffffff" xml:space="preserve" xmlns="http://www.w3.org/2000/svg" xmlns:xlink="http://www.w3.org/1999/xlink"><g><path d="M440.2781982,131.7678986c-9.0802917-17.8833008-18.9674988-34.0697021-27.8407898-45.5737991   c-11.1443176-14.4519958-18.9194031-19.487999-25.1811218-16.316803c-0.0097961,0.0051041-0.0204773,0.0035019-0.0309753,0.0087051   l-27.395813,13.9097977c-4.5741882,2.3242035-5.5228882,8.6985016-4.4953003,16.8355026l-173.030304,87.8683014   c-5.8271942,2.9618988-5.344696,12.7245941-2.3424988,24.0621948l-97.103096,49.3139038   c-0.0053024,0.0025024-0.0116959,0.0018921-0.0170975,0.0049133c-0.0068054,0.003479-0.0113983,0.0098877-0.0195007,0.0133972   l-30.4751015,15.4771729c-5.9860992,3.0371094-4.2998009,11.8792114-2.1575012,19.2415161   c2.2610016,7.7893066,6.2862015,17.5524902,11.335701,27.4914856c5.0447044,9.9390259,10.5550041,18.9491272,15.5115013,25.3726196   c3.8649979,5.0187073,8.7333984,10.3812866,13.6799011,10.3812866c1.0397949,0,2.0848007-0.2380066,3.1244965-0.7655945   l30.5042038-15.4899902l0.0011978-0.0007019l0.0005035-0.0006104l97.1118011-49.314209   c7.0712891,8.8869019,12.6060028,13.164917,17.2870941,13.164917c1.2315063,0,2.4008942-0.2922058,3.5288086-0.8640137   l9.623291-4.8862V437.735199c0,2.9259033,2.3694,5.2980042,5.2978973,5.2980042h65.3257141   c2.927887,0,5.2977905-2.3721008,5.2977905-5.2980042V263.1460876l87.3045044-44.3317871   c4.896698,4.7846985,9.0289917,7.1286926,12.6445007,7.1286926c1.3241882,0,2.5814819-0.3079987,3.7819824-0.9184875   l27.3955078-13.9125061c0.701416-0.3565063,1.2648926-0.8612061,1.7240906-1.4396057   C472.7886963,197.7610016,446.0114136,143.0617065,440.2781982,131.7678986z M430.8306885,136.5641022   c4.5735168,9.0079041,7.5125122,16.4660034,9.1990051,21.8596954c-3.3576965-4.5451965-7.6470032-11.3177948-12.2207031-20.322998   c-4.5734863-9.0101929-7.5121765-16.4733963-9.2041016-21.8672028   C421.9623108,120.7814026,426.2569885,127.5540009,430.8306885,136.5641022z M90.6849976,348.8118896   c-3.1923981-2.5249023-10.9636002-12.2749939-19.7123947-29.5040894   c-8.7493019-17.2314148-12.0398026-29.2582092-12.1897011-33.3222961L79.3294983,275.5513   c1.6221008,9.4807129,7.1116028,22.0596008,12.7006989,33.0621948c5.0444031,9.9389954,10.5547028,18.9492188,15.5112,25.3726196   c1.1458054,1.4888,2.3889008,2.9925842,3.6875,4.3927002L90.6849976,348.8118896z M121.2176971,333.3063049   c-3.146698-2.4337158-10.9242935-12.1308899-19.7401962-29.4888916   c-8.8150024-17.3595276-12.0577011-29.3595276-12.1635971-33.3363037l93.8493958-47.6594086   c4.5807953,12.9512024,10.896698,25.9931946,14.1188965,32.3405914   c5.7687988,11.3623962,11.9311066,21.8789978,17.8110046,30.4717102L121.2176971,333.3063049z M317.2228088,432.4371948   h-54.7292175V248.3612976c0-15.0895996,12.2778015-27.3645935,27.3647156-27.3645935   c15.0868835,0,27.364502,12.2749939,27.364502,27.3645935V432.4371948z M327.8190002,251.2608032v-2.8995056   c0-20.9309998-17.0273132-37.9608002-37.9606934-37.9608002c-20.9333191,0-37.9607086,17.0298004-37.9607086,37.9608002v41.454895   l-13.3694,6.7888184c-4.2267914-2.2868958-17.1307983-17.3609009-31.7982941-46.2389069   c-14.6631012-28.878006-19.2212067-48.1945038-18.5691071-52.9544983l169.3483887-85.9988022   c5.3330078,20.091301,17.358429,44.591301,20.9824219,51.7297897c9.0854797,17.8860016,18.9726868,34.069809,27.8461914,45.5738068   c0.5224915,0.6782074,1.0132141,1.2646027,1.5215149,1.9010925L327.8190002,251.2608032z M427.5191956,215.1864929   c-4.8063965-1.9041901-20.8916016-20.0463867-39.5798035-56.8402863   c-18.6831055-36.793808-23.8359985-60.487709-22.5424805-65.4934082l16.8634949-8.5611954   c0.3884888,4.2318954,1.4516907,9.3561935,3.2575989,15.5718994c4.0513,13.9459991,11.289093,31.4777908,20.3693848,49.3664017   c9.0852051,17.8860931,18.9725952,34.0724945,27.8459167,45.5739899c3.9560852,5.1299133,7.4653931,9.0045013,10.6540833,11.815506   L427.5191956,215.1864929z M453.5595093,200.5133057c-6.0222168-4.1442108-21.0215149-22.2089081-38.2243958-56.0796051   c-17.1982117-33.8785019-22.9360046-56.6435013-22.7238159-63.9489975   c3.2994995,2.2693939,9.3063965,8.7509003,16.8822937,19.6918945c-4.832489,3.2578049-3.4069824,11.0220032-1.5003052,17.5780029   c2.074707,7.1296005,5.7532043,16.0569992,10.3684082,25.1424026   c7.8432922,15.4492035,18.5794067,32.7870026,27.2559204,32.7870026c0.6881714,0,1.3578796-0.1531067,2.0189819-0.3816986   C451.990387,187.8524017,453.6756897,196.5133972,453.5595093,200.5133057z"/><path d="M289.8583069,230.8088989c-9.9753113,0-18.087616,8.1152039-18.087616,18.0877991   c0,9.9726868,8.1123047,18.0880127,18.087616,18.0880127c9.9750977,0,18.0877075-8.1153259,18.0877075-18.0880127   C307.9460144,238.9241028,299.8334045,230.8088989,289.8583069,230.8088989z M289.8583069,256.3884888   c-4.1289063,0-7.4919128-3.3604889-7.4919128-7.4917908s3.3630066-7.4918976,7.4919128-7.4918976   c4.1286926,0,7.4914856,3.3605957,7.4914856,7.4918976S293.9869995,256.3884888,289.8583069,256.3884888z"/></g></svg>