<?xml version='1.0' encoding='utf-8'?>
<!DOCTYPE svg PUBLIC '-//W3C//DTD SVG 1.1//EN' 'http://www.w3.org/Graphics/SVG/1.1/DTD/svg11.dtd'>
<svg version="1.1" xmlns="http://www.w3.org/2000/svg" viewBox="0 0 512 512" fill="#ffffff" xmlns:xlink="http://www.w3.org/1999/xlink" enable-background="new 0 0 512 512" stroke="#ffffff">
  <g>
    <g>
      <path d="m17.6,334.3c-8.3,7.6-8.8,20.6-1.2,28.9 7.6,8.3 20.5,8.8 28.9,1.2 10.7-9.9 25.8-9.9 36.5,0 13.1,12.1 29.5,18.1 45.9,18.1 16.4,0 32.8-6 45.9-18.1 10.7-9.9 25.8-9.9 36.5,0 26.2,24.1 65.7,24.1 91.8,0 10.7-9.9 25.8-9.9 36.5,0 26.2,24.1 65.7,24.1 91.8,0 10.7-9.9 25.8-9.9 36.5,0 8.3,7.6 21.2,7.1 28.8-1.2 7.6-8.3 7.1-21.2-1.2-28.9-11.9-10.9-26.5-16.9-41.4-17.9 2.7-10.1 4.5-20.4 5.6-30.8h21.6c11.3,0 20.4-9.1 20.4-20.4 0-11.3-9.1-20.4-20.4-20.4h-21.5c-4.1-40.9-20.3-78.2-45-108.3l15.3-15.3c8-8 8-20.9 0-28.9-8-8-20.9-8-28.9,0l-15.3,15.3c-30.2-24.7-67.5-40.9-108.3-45v-21.6c0-11.3-9.1-20.4-20.4-20.4-11.3,0-20.4,9.1-20.4,20.4v21.5c-40.9,4.1-78.2,20.3-108.3,45l-15.3-15.3c-8-8-20.9-8-28.9,0-8,8-8,20.9 0,28.9l15.3,15.3c-24.7,30.2-40.9,67.5-45,108.3h-21.6c-11.3,0-20.4,9.1-20.4,20.4 0,11.3 9.1,20.4 20.4,20.4h21.6c1.1,10.4 2.9,20.7 5.6,30.8-14.9,1.1-29.5,7.1-41.4,18zm238.4-231.9c89.8,0 162.8,73 162.8,162.8 0,18.8-4.4,48.3-19.6,71.8-10.4,7.1-23.5,6.2-33.1-2.7-26.2-24.1-65.7-24.1-91.8,0-10.7,9.9-25.8,9.9-36.5,0-26.1-24.1-65.6-24.1-91.8,0-10.7,9.8-25.6,9.9-36.3,0.1-9.9-23.9-16.4-50.6-16.4-69.3-0.1-89.7 72.9-162.7 162.7-162.7z"/>
      <path d="m494.4,443.3c-26.2-24.1-65.7-24.1-91.8,0-10.7,9.9-25.8,9.9-36.5,0-26.2-24.1-65.7-24.1-91.8,0-10.7,9.9-25.8,9.9-36.5,0-26.2-24.1-65.6-24.1-91.8,0-10.7,9.9-25.8,9.9-36.5,0-26.2-24.1-65.6-24.1-91.8,0-8.3,7.6-8.8,20.5-1.2,28.8 7.6,8.3 20.5,8.8 28.8,1.2 10.8-9.9 25.8-9.9 36.5,0 13.1,12 29.5,18.1 45.9,18.1 16.4,0 32.8-6 45.9-18.1 10.8-9.9 25.8-9.9 36.5,0 26.2,24.1 65.7,24.1 91.8,0 10.7-9.9 25.8-9.9 36.5,0 26.2,24.1 65.7,24.1 91.8,0 10.7-9.9 25.7-9.9 36.5,0 8.3,7.6 21.2,7.1 28.9-1.2 7.6-8.3 7.1-21.2-1.2-28.8z"/>
    </g>
  </g>
</svg>
